<svg version="1.1" xmlns="http://www.w3.org/2000/svg" xmlns:xlink="http://www.w3.org/1999/xlink" width="728.68359375" height="469"><defs/><g><g transform="translate(-126,-126) scale(1,1)"><rect fill="#C0C0C0" stroke="none" x="215" y="431" width="154.55810546875" height="132" opacity="0.2"/></g><g transform="translate(-126,-126) scale(1,1)"><rect fill="#ffffff" stroke="none" x="208" y="424" width="154.55810546875" height="132"/></g><g transform="translate(-126,-126) scale(1,1)"><path fill="none" stroke="#000000" d="M 208 424 L 362.55810546875 424 L 362.55810546875 556 L 208 556 L 208 424 Z Z" stroke-miterlimit="10"/></g><g transform="translate(-126,-126) scale(1,1)"><path fill="none" stroke="#000000" d="M 208 449 L 362.55810546875 449" stroke-miterlimit="10"/></g><g transform="translate(-126,-126) scale(1,1)"><path fill="none" stroke="#000000" d="M 208 547 L 362.55810546875 547" stroke-miterlimit="10"/></g><g transform="translate(-126,-126) scale(1,1)"><g><path fill="none" stroke="none"/><text fill="#000000" stroke="none" font-family="Arial" font-size="13px" font-style="normal" font-weight="bold" text-decoration="none" x="238.3095703125" y="443.5">TransactionKind</text></g></g><g transform="translate(-126,-126) scale(1,1)"><g><path fill="none" stroke="none"/><text fill="#000000" stroke="none" font-family="Arial" font-size="13px" font-style="normal" font-weight="normal" text-decoration="none" x="213" y="466.5">Identificator</text></g></g><g transform="translate(-126,-126) scale(1,1)"><g><path fill="none" stroke="none"/><text fill="#000000" stroke="none" font-family="Arial" font-size="13px" font-style="normal" font-weight="normal" text-decoration="none" x="213" y="481.5">Name</text></g></g><g transform="translate(-126,-126) scale(1,1)"><g><path fill="none" stroke="none"/><text fill="#000000" stroke="none" font-family="Arial" font-size="13px" font-style="normal" font-weight="normal" text-decoration="none" x="213" y="496.5">OptimisticTimeEstimate</text></g></g><g transform="translate(-126,-126) scale(1,1)"><g><path fill="none" stroke="none"/><text fill="#000000" stroke="none" font-family="Arial" font-size="13px" font-style="normal" font-weight="normal" text-decoration="none" x="213" y="511.5">NormalTimeEstimate</text></g></g><g transform="translate(-126,-126) scale(1,1)"><g><path fill="none" stroke="none"/><text fill="#000000" stroke="none" font-family="Arial" font-size="13px" font-style="normal" font-weight="normal" text-decoration="none" x="213" y="526.5">PesimisticTimeEstimate</text></g></g><g transform="translate(-126,-126) scale(1,1)"><g><path fill="none" stroke="none"/><text fill="#000000" stroke="none" font-family="Arial" font-size="13px" font-style="normal" font-weight="normal" text-decoration="none" x="213" y="541.5">ExpectedTimeEstimate</text></g></g><g transform="translate(-126,-126) scale(1,1)"><rect fill="#C0C0C0" stroke="none" x="175" y="286" width="88.47265625" height="57" opacity="0.2"/></g><g transform="translate(-126,-126) scale(1,1)"><rect fill="#ffffff" stroke="none" x="168" y="279" width="88.47265625" height="57"/></g><g transform="translate(-126,-126) scale(1,1)"><path fill="none" stroke="#000000" d="M 168 279 L 256.47265625 279 L 256.47265625 336 L 168 336 L 168 279 Z Z" stroke-miterlimit="10"/></g><g transform="translate(-126,-126) scale(1,1)"><path fill="none" stroke="#000000" d="M 168 304 L 256.47265625 304" stroke-miterlimit="10"/></g><g transform="translate(-126,-126) scale(1,1)"><path fill="none" stroke="#000000" d="M 168 327 L 256.47265625 327" stroke-miterlimit="10"/></g><g transform="translate(-126,-126) scale(1,1)"><g><path fill="none" stroke="none"/><text fill="#000000" stroke="none" font-family="Arial" font-size="13px" font-style="normal" font-weight="bold" text-decoration="none" x="175.746826171875" y="298.5">ProcessKind</text></g></g><g transform="translate(-126,-126) scale(1,1)"><g><path fill="none" stroke="none"/><text fill="#000000" stroke="none" font-family="Arial" font-size="13px" font-style="normal" font-weight="normal" text-decoration="none" x="173" y="321.5">Name</text></g></g><g transform="translate(-126,-126) scale(1,1)"><path fill="none" stroke="#000000" d="M 224 337 L 258 423" stroke-miterlimit="10"/></g><g transform="translate(-126,-126) scale(1,1)"><path fill="none" stroke="#000000" d="M 250.34891608483684 415.0967781934751 L 258 423 L 258.178288412776 412.0014449475456" stroke-miterlimit="10"/></g><g transform="translate(-126,-126) scale(1,1)"><g><path fill="none" stroke="none"/><text fill="#000000" stroke="none" font-family="Arial" font-size="13px" font-style="normal" font-weight="normal" text-decoration="none" x="243.2958984375" y="380.5">has</text></g></g><g transform="translate(-126,-126) scale(1,1)"><g><path fill="none" stroke="none"/><text fill="#000000" stroke="none" font-family="Arial" font-size="13px" font-style="normal" font-weight="normal" text-decoration="none" x="216.5" y="367.5">1</text></g></g><g transform="translate(-126,-126) scale(1,1)"><g><path fill="none" stroke="none"/><text fill="#000000" stroke="none" font-family="Arial" font-size="13px" font-style="normal" font-weight="normal" text-decoration="none" x="235.5" y="413.5">*</text></g></g><g transform="translate(-126,-126) scale(1,1)"><rect fill="#C0C0C0" stroke="none" x="527" y="455" width="143.3671875" height="72" opacity="0.2"/></g><g transform="translate(-126,-126) scale(1,1)"><rect fill="#ffffff" stroke="none" x="520" y="448" width="143.3671875" height="72"/></g><g transform="translate(-126,-126) scale(1,1)"><path fill="none" stroke="#000000" d="M 520 448 L 663.3671875 448 L 663.3671875 520 L 520 520 L 520 448 Z Z" stroke-miterlimit="10"/></g><g transform="translate(-126,-126) scale(1,1)"><path fill="none" stroke="#000000" d="M 520 473 L 663.3671875 473" stroke-miterlimit="10"/></g><g transform="translate(-126,-126) scale(1,1)"><path fill="none" stroke="#000000" d="M 520 511 L 663.3671875 511" stroke-miterlimit="10"/></g><g transform="translate(-126,-126) scale(1,1)"><g><path fill="none" stroke="none"/><text fill="#000000" stroke="none" font-family="Arial" font-size="13px" font-style="normal" font-weight="bold" text-decoration="none" x="533.15185546875" y="467.5">TransactionInstance</text></g></g><g transform="translate(-126,-126) scale(1,1)"><g><path fill="none" stroke="none"/><text fill="#000000" stroke="none" font-family="Arial" font-size="13px" font-style="normal" font-weight="normal" text-decoration="none" x="525" y="490.5">Completion</text></g></g><g transform="translate(-126,-126) scale(1,1)"><g><path fill="none" stroke="none"/><text fill="#000000" stroke="none" font-family="Arial" font-size="13px" font-style="normal" font-weight="normal" text-decoration="none" x="525" y="505.5">RequestedTime</text></g></g><g transform="translate(-126,-126) scale(1,1)"><rect fill="#C0C0C0" stroke="none" x="551" y="309" width="84.13720703125" height="72" opacity="0.2"/></g><g transform="translate(-126,-126) scale(1,1)"><rect fill="#ffffff" stroke="none" x="544" y="302" width="84.13720703125" height="72"/></g><g transform="translate(-126,-126) scale(1,1)"><path fill="none" stroke="#000000" d="M 544 302 L 628.13720703125 302 L 628.13720703125 374 L 544 374 L 544 302 Z Z" stroke-miterlimit="10"/></g><g transform="translate(-126,-126) scale(1,1)"><path fill="none" stroke="#000000" d="M 544 327 L 628.13720703125 327" stroke-miterlimit="10"/></g><g transform="translate(-126,-126) scale(1,1)"><path fill="none" stroke="#000000" d="M 544 365 L 628.13720703125 365" stroke-miterlimit="10"/></g><g transform="translate(-126,-126) scale(1,1)"><g><path fill="none" stroke="none"/><text fill="#000000" stroke="none" font-family="Arial" font-size="13px" font-style="normal" font-weight="bold" text-decoration="none" x="569.447265625" y="321.5">Event</text></g></g><g transform="translate(-126,-126) scale(1,1)"><g><path fill="none" stroke="none"/><text fill="#000000" stroke="none" font-family="Arial" font-size="13px" font-style="normal" font-weight="normal" text-decoration="none" x="549" y="344.5">Created</text></g></g><g transform="translate(-126,-126) scale(1,1)"><g><path fill="none" stroke="none"/><text fill="#000000" stroke="none" font-family="Arial" font-size="13px" font-style="normal" font-weight="normal" text-decoration="none" x="549" y="359.5">Duration</text></g></g><g transform="translate(-126,-126) scale(1,1)"><path fill="none" stroke="#000000" d="M 519 485 L 364 488" stroke-miterlimit="10"/></g><g transform="translate(-126,-126) scale(1,1)"><path fill="none" stroke="#000000" d="M 374.0793125926408 483.59461038501337 L 364 488 L 374.24223115448115 492.01206941342946" stroke-miterlimit="10"/></g><g transform="translate(-126,-126) scale(1,1)"><g><path fill="none" stroke="none"/><text fill="#000000" stroke="none" font-family="Arial" font-size="13px" font-style="normal" font-weight="normal" text-decoration="none" x="403.2958984375" y="506.5">is instance of</text></g></g><g transform="translate(-126,-126) scale(1,1)"><g><path fill="none" stroke="none"/><text fill="#000000" stroke="none" font-family="Arial" font-size="13px" font-style="normal" font-weight="normal" text-decoration="none" x="494.5" y="478.5">*</text></g></g><g transform="translate(-126,-126) scale(1,1)"><g><path fill="none" stroke="none"/><text fill="#000000" stroke="none" font-family="Arial" font-size="13px" font-style="normal" font-weight="normal" text-decoration="none" x="381.5" y="481.5">1</text></g></g><g transform="translate(-126,-126) scale(1,1)"><path fill="none" stroke="#000000" d="M 208 440 L 136 440 L 136 520 L 208 520" stroke-miterlimit="10"/></g><g transform="translate(-126,-126) scale(1,1)"><path fill="none" stroke="#000000" d="M 197.83732514237585 524.209517756016 L 208 520 L 197.83732514237585 515.790482243984" stroke-miterlimit="10"/></g><g transform="translate(-126,-126) scale(1,1)"><g><path fill="none" stroke="none"/><text fill="#000000" stroke="none" font-family="Arial" font-size="13px" font-style="normal" font-weight="normal" text-decoration="none" x="143.2958984375" y="460.5">includes</text></g></g><g transform="translate(-126,-126) scale(1,1)"><g><path fill="none" stroke="none"/><text fill="#000000" stroke="none" font-family="Arial" font-size="13px" font-style="normal" font-weight="normal" text-decoration="none" x="182.5" y="433.5">1</text></g></g><g transform="translate(-126,-126) scale(1,1)"><g><path fill="none" stroke="none"/><text fill="#000000" stroke="none" font-family="Arial" font-size="13px" font-style="normal" font-weight="normal" text-decoration="none" x="183.5" y="538.5">*</text></g></g><g transform="translate(-126,-126) scale(1,1)"><rect fill="#C0C0C0" stroke="none" x="543" y="143" width="91.7607421875" height="72" opacity="0.2"/></g><g transform="translate(-126,-126) scale(1,1)"><rect fill="#ffffff" stroke="none" x="536" y="136" width="91.7607421875" height="72"/></g><g transform="translate(-126,-126) scale(1,1)"><path fill="none" stroke="#000000" d="M 536 136 L 627.7607421875 136 L 627.7607421875 208 L 536 208 L 536 136 Z Z" stroke-miterlimit="10"/></g><g transform="translate(-126,-126) scale(1,1)"><path fill="none" stroke="#000000" d="M 536 161 L 627.7607421875 161" stroke-miterlimit="10"/></g><g transform="translate(-126,-126) scale(1,1)"><path fill="none" stroke="#000000" d="M 536 199 L 627.7607421875 199" stroke-miterlimit="10"/></g><g transform="translate(-126,-126) scale(1,1)"><g><path fill="none" stroke="none"/><text fill="#000000" stroke="none" font-family="Arial" font-size="13px" font-style="normal" font-weight="bold" text-decoration="none" x="552.24951171875" y="155.5">EventKind</text></g></g><g transform="translate(-126,-126) scale(1,1)"><g><path fill="none" stroke="none"/><text fill="#000000" stroke="none" font-family="Arial" font-size="13px" font-style="normal" font-weight="normal" text-decoration="none" x="541" y="178.5">Name</text></g></g><g transform="translate(-126,-126) scale(1,1)"><g><path fill="none" stroke="none"/><text fill="#000000" stroke="none" font-family="Arial" font-size="13px" font-style="normal" font-weight="normal" text-decoration="none" x="541" y="193.5">InternalLabel</text></g></g><g transform="translate(-126,-126) scale(1,1)"><path fill="none" stroke="#000000" d="M 590 447 L 587 375" stroke-miterlimit="10"/></g><g transform="translate(-126,-126) scale(1,1)"><path fill="none" stroke="#000000" d="M 585.3710538981393 437.0213799558221 L 590 447 L 593.7827907217494 436.6708909215051" stroke-miterlimit="10"/></g><g transform="translate(-126,-126) scale(1,1)"><g><path fill="none" stroke="none"/><text fill="#000000" stroke="none" font-family="Arial" font-size="13px" font-style="normal" font-weight="normal" text-decoration="none" x="597.5" y="430.5">1</text></g></g><g transform="translate(-126,-126) scale(1,1)"><g><path fill="none" stroke="none"/><text fill="#000000" stroke="none" font-family="Arial" font-size="13px" font-style="normal" font-weight="normal" text-decoration="none" x="599.2958984375" y="418.5">occurs in</text></g></g><g transform="translate(-126,-126) scale(1,1)"><g><path fill="none" stroke="none"/><text fill="#000000" stroke="none" font-family="Arial" font-size="13px" font-style="normal" font-weight="normal" text-decoration="none" x="598.726806640625" y="394.5">*</text></g></g><g transform="translate(-126,-126) scale(1,1)"><rect fill="#C0C0C0" stroke="none" x="775" y="335" width="72.2353515625" height="57" opacity="0.2"/></g><g transform="translate(-126,-126) scale(1,1)"><rect fill="#ffffff" stroke="none" x="768" y="328" width="72.2353515625" height="57"/></g><g transform="translate(-126,-126) scale(1,1)"><path fill="none" stroke="#000000" d="M 768 328 L 840.2353515625 328 L 840.2353515625 385 L 768 385 L 768 328 Z Z" stroke-miterlimit="10"/></g><g transform="translate(-126,-126) scale(1,1)"><path fill="none" stroke="#000000" d="M 768 353 L 840.2353515625 353" stroke-miterlimit="10"/></g><g transform="translate(-126,-126) scale(1,1)"><path fill="none" stroke="#000000" d="M 768 376 L 840.2353515625 376" stroke-miterlimit="10"/></g><g transform="translate(-126,-126) scale(1,1)"><g><path fill="none" stroke="none"/><text fill="#000000" stroke="none" font-family="Arial" font-size="13px" font-style="normal" font-weight="bold" text-decoration="none" x="788.94677734375" y="347.5">Actor</text></g></g><g transform="translate(-126,-126) scale(1,1)"><g><path fill="none" stroke="none"/><text fill="#000000" stroke="none" font-family="Arial" font-size="13px" font-style="normal" font-weight="normal" text-decoration="none" x="773" y="370.5">Name</text></g></g><g transform="translate(-126,-126) scale(1,1)"><path fill="none" stroke="#000000" d="M 629 342 L 767 353" stroke-miterlimit="10"/></g><g transform="translate(-126,-126) scale(1,1)"><path fill="none" stroke="#000000" d="M 756.5349770762505 356.38870110889076 L 767 353 L 757.203937791833 347.99628485885506" stroke-miterlimit="10"/></g><g transform="translate(-126,-126) scale(1,1)"><g><path fill="none" stroke="none"/><text fill="#000000" stroke="none" font-family="Arial" font-size="13px" font-style="normal" font-weight="normal" text-decoration="none" x="667.2958984375" y="371.5">raised by</text></g></g><g transform="translate(-126,-126) scale(1,1)"><g><path fill="none" stroke="none"/><text fill="#000000" stroke="none" font-family="Arial" font-size="13px" font-style="normal" font-weight="normal" text-decoration="none" x="646.5" y="362.5">*</text></g></g><g transform="translate(-126,-126) scale(1,1)"><g><path fill="none" stroke="none"/><text fill="#000000" stroke="none" font-family="Arial" font-size="13px" font-style="normal" font-weight="normal" text-decoration="none" x="740.5" y="369.5">1</text></g></g><g transform="translate(-126,-126) scale(1,1)"><path fill="none" stroke="#000000" d="M 663 456 L 784 456 L 784 385" stroke-miterlimit="10"/></g><g transform="translate(-126,-126) scale(1,1)"><path fill="none" stroke="#000000" d="M 788.209517756016 395.16267485762415 L 784 385 L 779.790482243984 395.16267485762415" stroke-miterlimit="10"/></g><g transform="translate(-126,-126) scale(1,1)"><g><path fill="none" stroke="none"/><text fill="#000000" stroke="none" font-family="Arial" font-size="13px" font-style="normal" font-weight="normal" text-decoration="none" x="690.2958984375" y="452.5">executed by</text></g></g><g transform="translate(-126,-126) scale(1,1)"><g><path fill="none" stroke="none"/><text fill="#000000" stroke="none" font-family="Arial" font-size="13px" font-style="normal" font-weight="normal" text-decoration="none" x="681.5" y="474.5">*</text></g></g><g transform="translate(-126,-126) scale(1,1)"><g><path fill="none" stroke="none"/><text fill="#000000" stroke="none" font-family="Arial" font-size="13px" font-style="normal" font-weight="normal" text-decoration="none" x="751.5" y="412.5">0..1</text></g></g><g transform="translate(-126,-126) scale(1,1)"><path fill="none" stroke="#000000" d="M 663 484 L 816 484 L 816 385" stroke-miterlimit="10"/></g><g transform="translate(-126,-126) scale(1,1)"><path fill="none" stroke="#000000" d="M 820.209517756016 395.16267485762415 L 816 385 L 811.790482243984 395.16267485762415" stroke-miterlimit="10"/></g><g transform="translate(-126,-126) scale(1,1)"><g><path fill="none" stroke="none"/><text fill="#000000" stroke="none" font-family="Arial" font-size="13px" font-style="normal" font-weight="normal" text-decoration="none" x="699.2958984375" y="500.5">initiated by</text></g></g><g transform="translate(-126,-126) scale(1,1)"><g><path fill="none" stroke="none"/><text fill="#000000" stroke="none" font-family="Arial" font-size="13px" font-style="normal" font-weight="normal" text-decoration="none" x="681.5" y="502.5">*</text></g></g><g transform="translate(-126,-126) scale(1,1)"><g><path fill="none" stroke="none"/><text fill="#000000" stroke="none" font-family="Arial" font-size="13px" font-style="normal" font-weight="normal" text-decoration="none" x="830.726806640625" y="403.5">1</text></g></g><g transform="translate(-126,-126) scale(1,1)"><rect fill="#C0C0C0" stroke="none" x="359" y="271" width="132.6171875" height="87" opacity="0.2"/></g><g transform="translate(-126,-126) scale(1,1)"><rect fill="#ffffff" stroke="none" x="352" y="264" width="132.6171875" height="87"/></g><g transform="translate(-126,-126) scale(1,1)"><path fill="none" stroke="#000000" d="M 352 264 L 484.6171875 264 L 484.6171875 351 L 352 351 L 352 264 Z Z" stroke-miterlimit="10"/></g><g transform="translate(-126,-126) scale(1,1)"><path fill="none" stroke="#000000" d="M 352 289 L 484.6171875 289" stroke-miterlimit="10"/></g><g transform="translate(-126,-126) scale(1,1)"><path fill="none" stroke="#000000" d="M 352 342 L 484.6171875 342" stroke-miterlimit="10"/></g><g transform="translate(-126,-126) scale(1,1)"><g><path fill="none" stroke="none"/><text fill="#000000" stroke="none" font-family="Arial" font-size="13px" font-style="normal" font-weight="bold" text-decoration="none" x="370.2568359375" y="283.5">ProcessInstance</text></g></g><g transform="translate(-126,-126) scale(1,1)"><g><path fill="none" stroke="none"/><text fill="#000000" stroke="none" font-family="Arial" font-size="13px" font-style="normal" font-weight="normal" text-decoration="none" x="357" y="306.5">Completion</text></g></g><g transform="translate(-126,-126) scale(1,1)"><g><path fill="none" stroke="none"/><text fill="#000000" stroke="none" font-family="Arial" font-size="13px" font-style="normal" font-weight="normal" text-decoration="none" x="357" y="321.5">StartTime</text></g></g><g transform="translate(-126,-126) scale(1,1)"><g><path fill="none" stroke="none"/><text fill="#000000" stroke="none" font-family="Arial" font-size="13px" font-style="normal" font-weight="normal" text-decoration="none" x="357" y="336.5">ExpectedEndTime</text></g></g><g transform="translate(-126,-126) scale(1,1)"><path fill="none" stroke="#000000" d="M 257 307 L 351 307" stroke-miterlimit="10"/></g><g transform="translate(-126,-126) scale(1,1)"><g><path fill="none" stroke="none"/><text fill="#000000" stroke="none" font-family="Arial" font-size="13px" font-style="normal" font-weight="normal" text-decoration="none" x="274.5" y="325.5">1</text></g></g><g transform="translate(-126,-126) scale(1,1)"><g><path fill="none" stroke="none"/><text fill="#000000" stroke="none" font-family="Arial" font-size="13px" font-style="normal" font-weight="normal" text-decoration="none" x="326.5" y="325.5">*</text></g></g><g transform="translate(-126,-126) scale(1,1)"><path fill="none" stroke="#000000" d="M 555 447 L 462 352" stroke-miterlimit="10"/></g><g transform="translate(-126,-126) scale(1,1)"><path fill="none" stroke="#000000" d="M 472.11732026436033 356.31738701859865 L 462 352 L 466.10117212850736 362.2068794042231" stroke-miterlimit="10"/></g><g transform="translate(-126,-126) scale(1,1)"><g><path fill="none" stroke="none"/><text fill="#000000" stroke="none" font-family="Arial" font-size="13px" font-style="normal" font-weight="normal" text-decoration="none" x="545.5" y="428.5">*</text></g></g><g transform="translate(-126,-126) scale(1,1)"><g><path fill="none" stroke="none"/><text fill="#000000" stroke="none" font-family="Arial" font-size="13px" font-style="normal" font-weight="normal" text-decoration="none" x="444.2958984375" y="411.5">is part of</text></g></g><g transform="translate(-126,-126) scale(1,1)"><g><path fill="none" stroke="none"/><text fill="#000000" stroke="none" font-family="Arial" font-size="13px" font-style="normal" font-weight="normal" text-decoration="none" x="487.5" y="371.5">1</text></g></g><g transform="translate(-126,-126) scale(1,1)"><path fill="none" stroke="#000000" d="M 585 301 L 582 209" stroke-miterlimit="10"/></g><g transform="translate(-126,-126) scale(1,1)"><path fill="none" stroke="#000000" d="M 586.5384970152783 219.02008207762344 L 582 209 L 578.1239340307649 219.29447000103147" stroke-miterlimit="10"/></g><g transform="translate(-126,-126) scale(1,1)"><g><path fill="none" stroke="none"/><text fill="#000000" stroke="none" font-family="Arial" font-size="13px" font-style="normal" font-weight="normal" text-decoration="none" x="594.2958984375" y="260.5">is instance of</text></g></g><g transform="translate(-126,-126) scale(1,1)"><g><path fill="none" stroke="none"/><text fill="#000000" stroke="none" font-family="Arial" font-size="13px" font-style="normal" font-weight="normal" text-decoration="none" x="593.5" y="284.5">*</text></g></g><g transform="translate(-126,-126) scale(1,1)"><g><path fill="none" stroke="none"/><text fill="#000000" stroke="none" font-family="Arial" font-size="13px" font-style="normal" font-weight="normal" text-decoration="none" x="591.5" y="236.5">1</text></g></g><g transform="translate(-126,-126) scale(1,1)"><path fill="none" stroke="#000000" d="M 560 520 L 560 584 L 640 584 L 640 520" stroke-miterlimit="10"/></g><g transform="translate(-126,-126) scale(1,1)"><path fill="#000000" stroke="none" d="M 644.209517756016 530.1626748576241 L 640 520 L 635.790482243984 530.1626748576241 L 640 542"/></g><g transform="translate(-126,-126) scale(1,1)"><path fill="none" stroke="#000000" d="M 644.209517756016 530.1626748576241 L 640 520 L 635.790482243984 530.1626748576241 L 640 542 L 644.209517756016 530.1626748576241" stroke-miterlimit="10"/></g><g transform="translate(-126,-126) scale(1,1)"><path fill="none" stroke="#000000" d="M 564.209517756016 530.1626748576241 L 560 520 L 555.790482243984 530.1626748576241" stroke-miterlimit="10"/></g><g transform="translate(-126,-126) scale(1,1)"><g><path fill="none" stroke="none"/><text fill="#000000" stroke="none" font-family="Arial" font-size="13px" font-style="normal" font-weight="normal" text-decoration="none" x="577.38134765625" y="575.5">children</text></g></g><g transform="translate(-126,-126) scale(1,1)"><g><path fill="none" stroke="none"/><text fill="#000000" stroke="none" font-family="Arial" font-size="13px" font-style="normal" font-weight="normal" text-decoration="none" x="544.58544921875" y="547.5">*</text></g></g><g transform="translate(-126,-126) scale(1,1)"><g><path fill="none" stroke="none"/><text fill="#000000" stroke="none" font-family="Arial" font-size="13px" font-style="normal" font-weight="normal" text-decoration="none" x="648.5" y="547.5">1</text></g></g></g></svg>